  0
SECTION
  2
HEADER
  9
$ACADVER
  1
AC1015
  9
$ACADMAINTVER
 70
     6
  9
$DWGCODEPAGE
  3
ANSI_1252
  9
$INSBASE
 10
0.0
 20
0.0
 30
0.0
  9
$EXTMIN
 10
-122.4353545735
 20
-5.0
 30
0.0
  9
$EXTMAX
 10
-64.2353545735
 20
87.5
 30
0.0
  9
$LIMMIN
 10
0.0
 20
0.0
  9
$LIMMAX
 10
420.0
 20
297.0
  9
$ORTHOMODE
 70
     0
  9
$REGENMODE
 70
     1
  9
$FILLMODE
 70
     1
  9
$QTEXTMODE
 70
     0
  9
$MIRRTEXT
 70
     1
  9
$LTSCALE
 40
1.0
  9
$ATTMODE
 70
     1
  9
$TEXTSIZE
 40
3.5
  9
$TRACEWID
 40
1.0
  9
$TEXTSTYLE
  7
Standard
  9
$CLAYER
  8
0
  9
$CELTYPE
  6
ByLayer
  9
$CECOLOR
 62
   256
  9
$CELTSCALE
 40
1.0
  9
$DISPSILH
 70
     0
  9
$DIMSCALE
 40
1.0
  9
$DIMASZ
 40
3.302
  9
$DIMEXO
 40
0.0
  9
$DIMDLI
 40
3.75
  9
$DIMRND
 40
0.0
  9
$DIMDLE
 40
0.0
  9
$DIMEXE
 40
1.0
  9
$DIMTP
 40
0.0
  9
$DIMTM
 40
0.0
  9
$DIMTXT
 40
3.5
  9
$DIMCEN
 40
2.5
  9
$DIMTSZ
 40
0.0
  9
$DIMTOL
 70
     0
  9
$DIMLIM
 70
     0
  9
$DIMTIH
 70
     1
  9
$DIMTOH
 70
     1
  9
$DIMSE1
 70
     0
  9
$DIMSE2
 70
     0
  9
$DIMTAD
 70
     1
  9
$DIMZIN
 70
     1
  9
$DIMBLK
  1

  9
$DIMASO
 70
     1
  9
$DIMSHO
 70
     1
  9
$DIMPOST
  1

  9
$DIMAPOST
  1

  9
$DIMALT
 70
     0
  9
$DIMALTD
 70
     3
  9
$DIMALTF
 40
0.0393700787
  9
$DIMLFAC
 40
1.0
  9
$DIMTOFL
 70
     1
  9
$DIMTVP
 40
0.0
  9
$DIMTIX
 70
     0
  9
$DIMSOXD
 70
     0
  9
$DIMSAH
 70
     0
  9
$DIMBLK1
  1

  9
$DIMBLK2
  1

  9
$DIMSTYLE
  2
ISO-25
  9
$DIMCLRD
 70
     0
  9
$DIMCLRE
 70
     0
  9
$DIMCLRT
 70
     0
  9
$DIMTFAC
 40
1.0
  9
$DIMGAP
 40
1.524
  9
$DIMJUST
 70
     0
  9
$DIMSD1
 70
     0
  9
$DIMSD2
 70
     0
  9
$DIMTOLJ
 70
     0
  9
$DIMTZIN
 70
     1
  9
$DIMALTZ
 70
     0
  9
$DIMALTTZ
 70
     0
  9
$DIMUPT
 70
     0
  9
$DIMDEC
 70
     2
  9
$DIMTDEC
 70
     2
  9
$DIMALTU
 70
     2
  9
$DIMALTTD
 70
     3
  9
$DIMTXSTY
  7
Standard
  9
$DIMAUNIT
 70
     0
  9
$DIMADEC
 70
     2
  9
$DIMALTRND
 40
0.0
  9
$DIMAZIN
 70
     0
  9
$DIMDSEP
 70
    44
  9
$DIMATFIT
 70
     3
  9
$DIMFRAC
 70
     0
  9
$DIMLDRBLK
  1

  9
$DIMLUNIT
 70
     2
  9
$DIMLWD
 70
    -2
  9
$DIMLWE
 70
    -2
  9
$DIMTMOVE
 70
     0
  9
$LUNITS
 70
     2
  9
$LUPREC
 70
     2
  9
$SKETCHINC
 40
1.0
  9
$FILLETRAD
 40
0.0
  9
$AUNITS
 70
     0
  9
$AUPREC
 70
     2
  9
$MENU
  1
.
  9
$ELEVATION
 40
0.0
  9
$PELEVATION
 40
0.0
  9
$THICKNESS
 40
0.0
  9
$LIMCHECK
 70
     0
  9
$CHAMFERA
 40
0.0
  9
$CHAMFERB
 40
0.0
  9
$CHAMFERC
 40
0.0
  9
$CHAMFERD
 40
0.0
  9
$SKPOLY
 70
     0
  9
$TDCREATE
 40
2459927.560474792
  9
$TDUCREATE
 40
2459927.518808125
  9
$TDUPDATE
 40
2459927.5605011
  9
$TDUUPDATE
 40
2459927.518834433
  9
$TDINDWG
 40
0.0000000116
  9
$TDUSRTIMER
 40
0.0000000116
  9
$USRTIMER
 70
     1
  9
$ANGBASE
 50
0.0
  9
$ANGDIR
 70
     0
  9
$PDMODE
 70
     0
  9
$PDSIZE
 40
-1.0
  9
$PLINEWID
 40
0.0
  9
$SPLFRAME
 70
     0
  9
$SPLINETYPE
 70
     6
  9
$SPLINESEGS
 70
     8
  9
$HANDSEED
  5
113
  9
$SURFTAB1
 70
     6
  9
$SURFTAB2
 70
     6
  9
$SURFTYPE
 70
     6
  9
$SURFU
 70
     6
  9
$SURFV
 70
     6
  9
$UCSBASE
  2

  9
$UCSNAME
  2

  9
$UCSORG
 10
0.0
 20
0.0
 30
0.0
  9
$UCSXDIR
 10
1.0
 20
0.0
 30
0.0
  9
$UCSYDIR
 10
0.0
 20
1.0
 30
0.0
  9
$UCSORTHOREF
  2

  9
$UCSORTHOVIEW
 70
     0
  9
$UCSORGTOP
 10
0.0
 20
0.0
 30
0.0
  9
$UCSORGBOTTOM
 10
0.0
 20
0.0
 30
0.0
  9
$UCSORGLEFT
 10
0.0
 20
0.0
 30
0.0
  9
$UCSORGRIGHT
 10
0.0
 20
0.0
 30
0.0
  9
$UCSORGFRONT
 10
0.0
 20
0.0
 30
0.0
  9
$UCSORGBACK
 10
0.0
 20
0.0
 30
0.0
  9
$PUCSBASE
  2

  9
$PUCSNAME
  2

  9
$PUCSORG
 10
0.0
 20
0.0
 30
0.0
  9
$PUCSXDIR
 10
1.0
 20
0.0
 30
0.0
  9
$PUCSYDIR
 10
0.0
 20
1.0
 30
0.0
  9
$PUCSORTHOREF
  2

  9
$PUCSORTHOVIEW
 70
     0
  9
$PUCSORGTOP
 10
0.0
 20
0.0
 30
0.0
  9
$PUCSORGBOTTOM
 10
0.0
 20
0.0
 30
0.0
  9
$PUCSORGLEFT
 10
0.0
 20
0.0
 30
0.0
  9
$PUCSORGRIGHT
 10
0.0
 20
0.0
 30
0.0
  9
$PUCSORGFRONT
 10
0.0
 20
0.0
 30
0.0
  9
$PUCSORGBACK
 10
0.0
 20
0.0
 30
0.0
  9
$USERI1
 70
     0
  9
$USERI2
 70
     0
  9
$USERI3
 70
     0
  9
$USERI4
 70
     0
  9
$USERI5
 70
     0
  9
$USERR1
 40
0.0
  9
$USERR2
 40
0.0
  9
$USERR3
 40
0.0
  9
$USERR4
 40
0.0
  9
$USERR5
 40
0.0
  9
$WORLDVIEW
 70
     1
  9
$SHADEDGE
 70
     3
  9
$SHADEDIF
 70
    70
  9
$TILEMODE
 70
     1
  9
$MAXACTVP
 70
    64
  9
$PINSBASE
 10
0.0
 20
0.0
 30
0.0
  9
$PLIMCHECK
 70
     0
  9
$PEXTMIN
 10
1.0000000000E+20
 20
1.0000000000E+20
 30
1.0000000000E+20
  9
$PEXTMAX
 10
-1.0000000000E+20
 20
-1.0000000000E+20
 30
-1.0000000000E+20
  9
$PLIMMIN
 10
0.0
 20
0.0
  9
$PLIMMAX
 10
420.0
 20
297.0
  9
$UNITMODE
 70
     0
  9
$VISRETAIN
 70
     1
  9
$PLINEGEN
 70
     0
  9
$PSLTSCALE
 70
     1
  9
$TREEDEPTH
 70
  3020
  9
$CMLSTYLE
  2
Standard
  9
$CMLJUST
 70
     0
  9
$CMLSCALE
 40
20.0
  9
$PROXYGRAPHICS
 70
     1
  9
$MEASUREMENT
 70
     1
  9
$CELWEIGHT
370
    -1
  9
$ENDCAPS
280
     0
  9
$JOINSTYLE
280
     0
  9
$LWDISPLAY
290
     1
  9
$INSUNITS
 70
     4
  9
$HYPERLINKBASE
  1

  9
$STYLESHEET
  1

  9
$XEDIT
290
     1
  9
$CEPSNTYPE
380
     0
  9
$PSTYLEMODE
290
     1
  9
$FINGERPRINTGUID
  2
{79aad111-6b77-48c0-b556-64d8ed04043b}
  9
$VERSIONGUID
  2
{FAEB1C32-E019-11D5-929B-00C0DF256EC4}
  9
$EXTNAMES
290
     1
  9
$PSVPSCALE
 40
0.0
  9
$OLESTARTUP
290
     0
  0
ENDSEC
  0
SECTION
  2
CLASSES
  0
CLASS
  1
ACDBDICTIONARYWDFLT
  2
AcDbDictionaryWithDefault
  3
ObjectDBX Classes
 90
        0
280
     0
281
     0
  0
CLASS
  1
VISUALSTYLE
  2
AcDbVisualStyle
  3
ObjectDBX Classes
 90
     4095
280
     0
281
     0
  0
CLASS
  1
MATERIAL
  2
AcDbMaterial
  3
ObjectDBX Classes
 90
     1153
280
     0
281
     0
  0
CLASS
  1
SCALE
  2
AcDbScale
  3
ObjectDBX Classes
 90
     1153
280
     0
281
     0
  0
CLASS
  1
TABLESTYLE
  2
AcDbTableStyle
  3
ObjectDBX Classes
 90
     4095
280
     0
281
     0
  0
CLASS
  1
MLEADERSTYLE
  2
AcDbMLeaderStyle
  3
ACDB_MLEADERSTYLE_CLASS
 90
     4095
280
     0
281
     0
  0
CLASS
  1
SUN
  2
AcDbSun
  3
SCENEOE
 90
     1153
280
     0
281
     0
  0
CLASS
  1
ACDBPLACEHOLDER
  2
AcDbPlaceHolder
  3
ObjectDBX Classes
 90
        0
280
     0
281
     0
  0
CLASS
  1
LAYOUT
  2
AcDbLayout
  3
ObjectDBX Classes
 90
        0
280
     0
281
     0
  0
ENDSEC
  0
SECTION
  2
TABLES
  0
TABLE
  2
VPORT
  5
8
330
0
100
AcDbSymbolTable
 70
     1
  0
VPORT
  5
29
330
8
100
AcDbSymbolTableRecord
100
AcDbViewportTableRecord
  2
*Active
 70
     0
 10
0.0
 20
0.0
 11
1.0
 21
1.0
 12
-93.3353545735
 22
41.25
 13
0.0
 23
0.0
 14
10.0
 24
10.0
 15
10.0
 25
10.0
 16
0.0
 26
0.0
 36
1.0
 17
0.0
 27
0.0
 37
0.0
 40
94.35
 41
0.6291891892
 42
50.0
 43
0.0
 44
0.0
 50
0.0
 51
0.0
 71
     0
 72
   100
 73
     1
 74
     3
 75
     0
 76
     0
 77
     0
 78
     0
281
     0
 65
     1
110
0.0
120
0.0
130
0.0
111
1.0
121
0.0
131
0.0
112
0.0
122
1.0
132
0.0
 79
     0
146
0.0
  0
ENDTAB
  0
TABLE
  2
LTYPE
  5
5
330
0
100
AcDbSymbolTable
 70
     6
  0
LTYPE
  5
14
330
5
100
AcDbSymbolTableRecord
100
AcDbLinetypeTableRecord
  2
ByBlock
 70
     0
  3

 72
    65
 73
     0
 40
0.0
  0
LTYPE
  5
15
330
5
100
AcDbSymbolTableRecord
100
AcDbLinetypeTableRecord
  2
ByLayer
 70
     0
  3

 72
    65
 73
     0
 40
0.0
  0
LTYPE
  5
16
330
5
100
AcDbSymbolTableRecord
100
AcDbLinetypeTableRecord
  2
Continuous
 70
     0
  3
Solid line
 72
    65
 73
     0
 40
0.0
  0
LTYPE
  5
5E
330
5
100
AcDbSymbolTableRecord
100
AcDbLinetypeTableRecord
  2
HIDDEN
 70
     0
  3
Hidden __ __ __ __ __ __ __ __ __ __ __ __ __ __
 72
    65
 73
     2
 40
1.905
 49
1.27
 74
     0
 49
-0.635
 74
     0
  0
LTYPE
  5
5F
330
5
100
AcDbSymbolTableRecord
100
AcDbLinetypeTableRecord
  2
PHANTOM
 70
     0
  3
Phantom ______  __  __  ______  __  __  ______
 72
    65
 73
     6
 40
12.7
 49
6.35
 74
     0
 49
-1.27
 74
     0
 49
1.27
 74
     0
 49
-1.27
 74
     0
 49
1.27
 74
     0
 49
-1.27
 74
     0
  0
LTYPE
  5
60
330
5
100
AcDbSymbolTableRecord
100
AcDbLinetypeTableRecord
  2
CENTER
 70
     0
  3
Center ____ _ ____ _ ____ _ ____ _ ____ _ ____
 72
    65
 73
     4
 40
10.16
 49
6.35
 74
     0
 49
-1.27
 74
     0
 49
1.27
 74
     0
 49
-1.27
 74
     0
  0
LTYPE
  5
61
330
5
100
AcDbSymbolTableRecord
100
AcDbLinetypeTableRecord
  2
CENTERX2
 70
     0
  3
Center (2x) ________  __  ________  __  _____
 72
    65
 73
     4
 40
20.32
 49
12.7
 74
     0
 49
-2.54
 74
     0
 49
2.54
 74
     0
 49
-2.54
 74
     0
  0
LTYPE
  5
62
330
5
100
AcDbSymbolTableRecord
100
AcDbLinetypeTableRecord
  2
DOT2
 70
     0
  3
Dot (.5x) ........................................
 72
    65
 73
     2
 40
0.635
 49
0.0
 74
     0
 49
-0.635
 74
     0
  0
ENDTAB
  0
TABLE
  2
LAYER
  5
2
330
0
100
AcDbSymbolTable
 70
     1
  0
LAYER
  5
10
330
2
100
AcDbSymbolTableRecord
100
AcDbLayerTableRecord
  2
0
 70
     0
 62
     7
  6
Continuous
370
    -3
390
F
  0
ENDTAB
  0
TABLE
  2
STYLE
  5
3
330
0
100
AcDbSymbolTable
 70
     1
  0
STYLE
  5
11
330
3
100
AcDbSymbolTableRecord
100
AcDbTextStyleTableRecord
  2
Standard
 70
     0
 40
0.0
 41
1.0
 50
0.0
 71
     0
 42
3.5
  3
txt
  4

  0
ENDTAB
  0
TABLE
  2
VIEW
  5
6
330
0
100
AcDbSymbolTable
 70
     0
  0
ENDTAB
  0
TABLE
  2
UCS
  5
7
330
0
100
AcDbSymbolTable
 70
     0
  0
ENDTAB
  0
TABLE
  2
APPID
  5
9
330
0
100
AcDbSymbolTable
 70
     1
  0
APPID
  5
12
330
9
100
AcDbSymbolTableRecord
100
AcDbRegAppTableRecord
  2
ACAD
 70
     0
  0
ENDTAB
  0
TABLE
  2
DIMSTYLE
  5
A
330
0
100
AcDbSymbolTable
 70
     1
100
AcDbDimStyleTable
  0
DIMSTYLE
105
27
330
A
100
AcDbSymbolTableRecord
100
AcDbDimStyleTableRecord
  2
ISO-25
 70
     0
 41
2.5
 42
0.625
 43
3.75
 44
1.25
 73
     0
 74
     0
 77
     1
 78
     8
140
2.5
141
2.5
143
0.0393700787
147
0.625
171
     3
172
     1
178
     0
271
     2
272
     2
274
     3
278
    44
283
     0
284
     8
340
11
  0
ENDTAB
  0
TABLE
  2
BLOCK_RECORD
  5
1
330
0
100
AcDbSymbolTable
 70
     1
  0
BLOCK_RECORD
  5
1F
330
1
100
AcDbSymbolTableRecord
100
AcDbBlockTableRecord
  2
*Model_Space
340
22
  0
BLOCK_RECORD
  5
1B
330
1
100
AcDbSymbolTableRecord
100
AcDbBlockTableRecord
  2
*Paper_Space
340
1E
  0
BLOCK_RECORD
  5
23
330
1
100
AcDbSymbolTableRecord
100
AcDbBlockTableRecord
  2
*Paper_Space0
340
26
  0
ENDTAB
  0
ENDSEC
  0
SECTION
  2
BLOCKS
  0
BLOCK
  5
20
330
1F
100
AcDbEntity
  8
0
100
AcDbBlockBegin
  2
*Model_Space
 70
     0
 10
0.0
 20
0.0
 30
0.0
  3
*Model_Space
  1

  0
ENDBLK
  5
21
330
1F
100
AcDbEntity
  8
0
100
AcDbBlockEnd
  0
BLOCK
  5
1C
330
1B
100
AcDbEntity
 67
     1
  8
0
100
AcDbBlockBegin
  2
*Paper_Space
 70
     0
 10
0.0
 20
0.0
 30
0.0
  3
*Paper_Space
  1

  0
ENDBLK
  5
1D
330
1B
100
AcDbEntity
 67
     1
  8
0
100
AcDbBlockEnd
  0
BLOCK
  5
24
330
23
100
AcDbEntity
  8
0
100
AcDbBlockBegin
  2
*Paper_Space0
 70
     0
 10
0.0
 20
0.0
 30
0.0
  3
*Paper_Space0
  1

  0
ENDBLK
  5
25
330
23
100
AcDbEntity
  8
0
100
AcDbBlockEnd
  0
ENDSEC
  0
SECTION
  2
ENTITIES
  0
SPLINE
  5
76
330
1F
100
AcDbEntity
  8
0
  6
Continuous
 62
     7
370
    25
100
AcDbSpline
210
0.0
220
0.0
230
1.0
 70
     8
 71
     3
 72
    23
 73
    19
 74
     0
 42
0.00000001
 43
0.00000001
 40
0.0
 40
0.0
 40
0.0
 40
0.0
 40
0.0614865868946443
 40
0.1217791458177241
 40
0.1809264209156885
 40
0.2402652264294997
 40
0.2997154730618088
 40
0.3605026327534172
 40
0.4231437279464125
 40
0.4879998544894013
 40
0.5532870736877852
 40
0.6169166430135385
 40
0.6798088191445503
 40
0.7421776116175572
 40
0.8046558039158664
 40
0.8682539932332959
 40
0.9330177170745292
 40
0.9999999999999999
 40
0.9999999999999999
 40
0.9999999999999999
 40
0.9999999999999999
 10
-94.5565084196377
 20
39.44462389823718
 30
0.0
 10
-94.55800106254485
 20
39.37346356399518
 30
0.0
 10
-94.56095736224248
 20
39.23252478111976
 30
0.0
 10
-94.59485244156492
 20
39.02555217896018
 30
0.0
 10
-94.64469006450408
 20
38.82462115247793
 30
0.0
 10
-94.7189670464525
 20
38.63223219759215
 30
0.0
 10
-94.81181543051527
 20
38.44624112406685
 30
0.0
 10
-94.92485759648257
 20
38.26697404363978
 30
0.0
 10
-95.06185182976495
 20
38.09737650699768
 30
0.0
 10
-95.21403598745245
 20
37.93415488215176
 30
0.0
 10
-95.3830740818969
 20
37.78653706009749
 30
0.0
 10
-95.56195089974887
 20
37.65505618518162
 30
0.0
 10
-95.74966244658056
 20
37.54247932525713
 30
0.0
 10
-95.94835235404786
 20
37.45403644452828
 30
0.0
 10
-96.15474765879706
 20
37.38328970221862
 30
0.0
 10
-96.36981719702726
 20
37.33258029922226
 30
0.0
 10
-96.5940231095487
 20
37.30135181443752
 30
0.0
 10
-96.74642640564578
 20
37.29811832774345
 30
0.0
 10
-96.82391126418898
 20
37.29647435897436
 30
0.0
  0
SPLINE
  5
77
330
1F
100
AcDbEntity
  8
0
  6
Continuous
 62
     7
370
    25
100
AcDbSpline
210
0.0
220
0.0
230
1.0
 70
     8
 71
     3
 72
    19
 73
    15
 74
     0
 42
0.00000001
 43
0.00000001
 40
0.0
 40
0.0
 40
0.0
 40
0.0
 40
0.0969670031886385
 40
0.1877631623194242
 40
0.2723812310585991
 40
0.3513017699454443
 40
0.4243115510541526
 40
0.491881862348517
 40
0.554202887193765
 40
0.6108431885375961
 40
0.7159176243565437
 40
0.8145502358482745
 40
0.9085004640969319
 40
0.9999999999999999
 40
0.9999999999999999
 40
0.9999999999999999
 40
0.9999999999999999
 10
-96.42640024656076
 20
42.00618489583334
 30
0.0
 10
-96.34025368259583
 20
41.94349819679719
 30
0.0
 10
-96.17344280115049
 20
41.82211409231484
 30
0.0
 10
-95.93609353888817
 20
41.63974341698629
 30
0.0
 10
-95.72089075360192
 20
41.4613794619766
 30
0.0
 10
-95.52706296083365
 20
41.28817285026496
 30
0.0
 10
-95.35274860748626
 20
41.12139869258446
 30
0.0
 10
-95.19970488391455
 20
40.95917984381194
 30
0.0
 10
-95.0672373937321
 20
40.80258011279152
 30
0.0
 10
-94.9226790721083
 20
40.6031747951008
 30
0.0
 10
-94.77671801962289
 20
40.35600460446597
 30
0.0
 10
-94.65156841364177
 20
40.05303799713263
 30
0.0
 10
-94.57195037716605
 20
39.74920197030175
 30
0.0
 10
-94.56161019078135
 20
39.54525153020679
 30
0.0
 10
-94.55650841963768
 20
39.44462389823718
 30
0.0
  0
SPLINE
  5
78
330
1F
100
AcDbEntity
  8
0
  6
Continuous
 62
     7
370
    25
100
AcDbSpline
210
0.0
220
0.0
230
1.0
 70
     8
 71
     3
 72
    15
 73
    11
 74
     0
 42
0.00000001
 43
0.00000001
 40
0.0
 40
0.0
 40
0.0
 40
0.0
 40
0.0525942815291364
 40
0.1249519739750478
 40
0.2180938989285977
 40
0.3335024107325245
 40
0.4687891785044523
 40
0.6249375859645996
 40
0.8016830479282252
 40
1.0
 40
1.0
 40
1.0
 40
1.0
 10
-97.49331981787488
 20
42.7964367988782
 30
0.0
 10
-97.47594491973602
 20
42.7809314010459
 30
0.0
 10
-97.43466613890766
 20
42.74409412501348
 30
0.0
 10
-97.35920109303378
 20
42.68378663141071
 30
0.0
 10
-97.25954510419079
 20
42.60939462995533
 30
0.0
 10
-97.13830046937915
 20
42.51734839437862
 30
0.0
 10
-96.99323163117664
 20
42.41057436421978
 30
0.0
 10
-96.82432263777731
 20
42.29043777949118
 30
0.0
 10
-96.63345630438374
 20
42.15303861352913
 30
0.0
 10
-96.49801553082577
 20
42.05697776250304
 30
0.0
 10
-96.42640024656076
 20
42.00618489583334
 30
0.0
  0
SPLINE
  5
79
330
1F
100
AcDbEntity
  8
0
  6
Continuous
 62
     7
370
    25
100
AcDbSpline
210
0.0
220
0.0
230
1.0
 70
     8
 71
     3
 72
    15
 73
    11
 74
     0
 42
0.00000001
 43
0.00000001
 40
0.0
 40
0.0
 40
0.0
 40
0.0
 40
0.1073125049355222
 40
0.2161199163495747
 40
0.3234073297049356
 40
0.4346132134596953
 40
0.5532987102602642
 40
0.6859931296549718
 40
0.8342138309427333
 40
1.0
 40
1.0
 40
1.0
 40
1.0
 10
-98.01644431707358
 20
43.82201522435898
 30
0.0
 10
-98.01545969955477
 20
43.77951047657618
 30
0.0
 10
-98.013476748398
 20
43.69390887272957
 30
0.0
 10
-97.98983515326788
 20
43.56769832181033
 30
0.0
 10
-97.95455502944006
 20
43.44297356077077
 30
0.0
 10
-97.90454642875456
 20
43.31901599245721
 30
0.0
 10
-97.83658414876325
 20
43.19229417383171
 30
0.0
 10
-97.74427944089133
 20
43.06353039457691
 30
0.0
 10
-97.6287723210945
 20
42.92950203341208
 30
0.0
 10
-97.5401236473468
 20
42.84241573908034
 30
0.0
 10
-97.49331981787489
 20
42.79643679887821
 30
0.0
  0
SPLINE
  5
7A
330
1F
100
AcDbEntity
  8
0
  6
Continuous
 62
     7
370
    25
100
AcDbSpline
210
0.0
220
0.0
230
1.0
 70
     8
 71
     3
 72
    15
 73
    11
 74
     0
 42
0.00000001
 43
0.00000001
 40
0.0
 40
0.0
 40
0.0
 40
0.0
 40
0.1430311101154192
 40
0.2758220219306229
 40
0.4018686934691182
 40
0.527874504882859
 40
0.6504589547820667
 40
0.7659637659158585
 40
0.8808091083575647
 40
1.0
 40
1.0
 40
1.0
 40
1.0
 10
-96.8525320574582
 20
44.82692307692308
 30
0.0
 10
-96.93454923545639
 20
44.82422011093621
 30
0.0
 10
-97.09271163698044
 20
44.8190076956574
 30
0.0
 10
-97.31673281311839
 20
44.76058231223372
 30
0.0
 10
-97.51952788109793
 20
44.67175045360966
 30
0.0
 10
-97.69335517436454
 20
44.54365583950194
 30
0.0
 10
-97.8368816746329
 20
44.39094238676414
 30
0.0
 10
-97.94199162872775
 20
44.21678344902324
 30
0.0
 10
-98.00483502284597
 20
44.02443167912962
 30
0.0
 10
-98.01252694485171
 20
43.89031744683859
 30
0.0
 10
-98.01644431707358
 20
43.82201522435898
 30
0.0
  0
SPLINE
  5
7B
330
1F
100
AcDbEntity
  8
0
  6
Continuous
 62
     7
370
    25
100
AcDbSpline
210
0.0
220
0.0
230
1.0
 70
     8
 71
     3
 72
    19
 73
    15
 74
     0
 42
0.00000001
 43
0.00000001
 40
0.0
 40
0.0
 40
0.0
 40
0.0
 40
0.0984522330833783
 40
0.1895959819220318
 40
0.2741362024737979
 40
0.3521216512623192
 40
0.4236997030543209
 40
0.4890403619619342
 40
0.548952296386362
 40
0.601909863183876
 40
0.7012796068277765
 40
0.8004344303357761
 40
0.898562817844592
 40
1.0
 40
1.0
 40
1.0
 40
1.0
 10
-95.3022390887082
 20
43.80929487179487
 30
0.0
 10
-95.34112077877899
 20
43.85939176663227
 30
0.0
 10
-95.41599782297477
 20
43.9558666729952
 30
0.0
 10
-95.52972205428857
 20
44.09092732377991
 30
0.0
 10
-95.63674742998518
 20
44.2144668693236
 30
0.0
 10
-95.74300030869081
 20
44.3214881081146
 30
0.0
 10
-95.84029037577403
 20
44.42000639915198
 30
0.0
 10
-95.93639421010896
 20
44.50285425838505
 30
0.0
 10
-96.02759918037269
 20
44.57266184989223
 30
0.0
 10
-96.14229958458874
 20
44.64725723138312
 30
0.0
 10
-96.28796942222893
 20
44.71942881414303
 30
0.0
 10
-96.46912361350986
 20
44.7814791722024
 30
0.0
 10
-96.65855983160895
 20
44.81961279768063
 30
0.0
 10
-96.78716389757392
 20
44.8244595309168
 30
0.0
 10
-96.8525320574582
 20
44.82692307692308
 30
0.0
  0
SPLINE
  5
7D
330
1F
100
AcDbEntity
  8
0
  6
Continuous
 62
     7
370
    25
100
AcDbSpline
210
0.0
220
0.0
230
1.0
 70
     8
 71
     3
 72
    19
 73
    15
 74
     0
 42
0.00000001
 43
0.00000001
 40
0.0
 40
0.0
 40
0.0
 40
0.0
 40
0.1072111709060897
 40
0.2126125718600345
 40
0.3185474150997257
 40
0.4264887226768757
 40
0.4833296759051118
 40
0.5432754538654768
 40
0.6079662308887438
 40
0.6771918825831957
 40
0.7507359217939212
 40
0.8287479663052464
 40
0.9122080591013338
 40
1.0
 40
1.0
 40
1.0
 40
1.0
 10
-96.77302985393256
 20
45.64102564102564
 30
0.0
 10
-96.67946521995425
 20
45.63790348120654
 30
0.0
 10
-96.49391536262925
 20
45.63171186494782
 30
0.0
 10
-96.22090046111856
 20
45.57456639072267
 30
0.0
 10
-95.95647321492221
 20
45.48577724303802
 30
0.0
 10
-95.74455552937464
 20
45.38003107962243
 30
0.0
 10
-95.57863770865863
 20
45.27555403865789
 30
0.0
 10
-95.45224058782341
 20
45.18015082604962
 30
0.0
 10
-95.32345700415866
 20
45.07055569199913
 30
0.0
 10
-95.19367455031774
 20
44.94444690274168
 30
0.0
 10
-95.06161094435028
 20
44.80435009284054
 30
0.0
 10
-94.92787481492826
 20
44.64907834229417
 30
0.0
 10
-94.79121452910945
 20
44.4800311921495
 30
0.0
 10
-94.70332671532796
 20
44.35932046419035
 30
0.0
 10
-94.65827124015051
 20
44.29743840144231
 30
0.0
  0
SPLINE
  5
7E
330
1F
100
AcDbEntity
  8
0
  6
Continuous
 62
     7
370
    25
100
AcDbSpline
210
0.0
220
0.0
230
1.0
 70
     8
 71
     3
 72
    19
 73
    15
 74
     0
 42
0.00000001
 43
0.00000001
 40
0.0
 40
0.0
 40
0.0
 40
0.0
 40
0.0837805942247623
 40
0.1657704371570569
 40
0.2462659679845066
 40
0.32768167529377
 40
0.4087112135170551
 40
0.4896248877334647
 40
0.5716147306657583
 40
0.6562070036946953
 40
0.7416982914258211
 40
0.8265566487105886
 40
0.9119938689865389
 40
0.9999999999999999
 40
0.9999999999999999
 40
0.9999999999999999
 40
0.9999999999999999
 10
-98.72878406066333
 20
43.7886242988782
 30
0.0
 10
-98.72583707666998
 20
43.87260973303413
 30
0.0
 10
-98.720006098394
 20
44.03878547174401
 30
0.0
 10
-98.67028568180856
 20
44.28141170977784
 30
0.0
 10
-98.59273521791829
 20
44.51377304640362
 30
0.0
 10
-98.48053747347232
 20
44.73069795859698
 30
0.0
 10
-98.34195226803337
 20
44.93187893891366
 30
0.0
 10
-98.17745136549672
 20
45.11374721034174
 30
0.0
 10
-97.98395412953707
 20
45.27004264309937
 30
0.0
 10
-97.76854229091057
 20
45.4029062547917
 30
0.0
 10
-97.53551107887006
 20
45.50890178292305
 30
0.0
 10
-97.29060894202033
 20
45.58613676558966
 30
0.0
 10
-97.03493633906359
 20
45.63140118011075
 30
0.0
 10
-96.86118981600514
 20
45.63778596519706
 30
0.0
 10
-96.77302985393256
 20
45.64102564102564
 30
0.0
  0
SPLINE
  5
7F
330
1F
100
AcDbEntity
  8
0
  6
Continuous
 62
     7
370
    25
100
AcDbSpline
210
0.0
220
0.0
230
1.0
 70
     8
 71
     3
 72
    15
 73
    11
 74
     0
 42
0.00000001
 43
0.00000001
 40
0.0
 40
0.0
 40
0.0
 40
0.0
 40
0.1335024395772751
 40
0.2625504643424612
 40
0.3882518563240245
 40
0.5115309837160424
 40
0.6337341477948563
 40
0.7554017923417763
 40
0.8775569158628297
 40
1.0
 40
1.0
 40
1.0
 40
1.0
 10
-98.28516176499025
 20
42.58019080528846
 30
0.0
 10
-98.32024540583312
 20
42.62691333311484
 30
0.0
 10
-98.38924209400813
 20
42.71879945455883
 30
0.0
 10
-98.48041666544185
 20
42.86237813654191
 30
0.0
 10
-98.55730442975882
 20
43.00907467051405
 30
0.0
 10
-98.61918470495604
 20
43.15942071734853
 30
0.0
 10
-98.66922493907168
 20
43.31228633706061
 30
0.0
 10
-98.70401573887916
 20
43.46881918452391
 30
0.0
 10
-98.72546005232687
 20
43.62795662134423
 30
0.0
 10
-98.72767518860586
 20
43.73502638932916
 30
0.0
 10
-98.72878406066334
 20
43.78862429887821
 30
0.0
  0
SPLINE
  5
80
330
1F
100
AcDbEntity
  8
0
  6
Continuous
 62
     7
370
    25
100
AcDbSpline
210
0.0
220
0.0
230
1.0
 70
     8
 71
     3
 72
    15
 73
    11
 74
     0
 42
0.00000001
 43
0.00000001
 40
0.0
 40
0.0
 40
0.0
 40
0.0
 40
0.1815319715023526
 40
0.3470753060162334
 40
0.4955587263078087
 40
0.6290766435747199
 40
0.7455243378854586
 40
0.8458335786603298
 40
0.9307830770433562
 40
1.0
 40
1.0
 40
1.0
 40
1.0
 10
-96.98450571531077
 20
41.50055088141026
 30
0.0
 10
-97.06800613851556
 20
41.56004718598825
 30
0.0
 10
-97.22765258920109
 20
41.67379958975136
 30
0.0
 10
-97.45108660112766
 20
41.84240722116979
 30
0.0
 10
-97.65061791119518
 20
41.99754487133364
 30
0.0
 10
-97.82726323050456
 20
42.13705153002028
 30
0.0
 10
-97.97645252090255
 20
42.2670117710221
 30
0.0
 10
-98.10363972594442
 20
42.38046045156428
 30
0.0
 10
-98.20413242837094
 20
42.48345560198531
 30
0.0
 10
-98.26005424693568
 20
42.55021671238855
 30
0.0
 10
-98.28516176499025
 20
42.58019080528846
 30
0.0
  0
SPLINE
  5
81
330
1F
100
AcDbEntity
  8
0
  6
Continuous
 62
     7
370
    25
100
AcDbSpline
210
0.0
220
0.0
230
1.0
 70
     8
 71
     3
 72
    15
 73
    11
 74
     0
 42
0.00000001
 43
0.00000001
 40
0.0
 40
0.0
 40
0.0
 40
0.0
 40
0.0902854568194329
 40
0.1900994020145669
 40
0.299186878772325
 40
0.4183616683171868
 40
0.5483592682587279
 40
0.6887747657773196
 40
0.8390723754207394
 40
1.0
 40
1.0
 40
1.0
 40
1.0
 10
-95.55346605184923
 20
40.23487580128205
 30
0.0
 10
-95.58889893334663
 20
40.28043783287034
 30
0.0
 10
-95.6635041889614
 20
40.37637039238351
 30
0.0
 10
-95.7936503145578
 20
40.5166616492731
 30
0.0
 10
-95.94163465912912
 20
40.66520419852318
 30
0.0
 10
-96.1112885912736
 20
40.81903315533841
 30
0.0
 10
-96.3001381929564
 20
40.98129521172982
 30
0.0
 10
-96.51032448638597
 20
41.1489810225645
 30
0.0
 10
-96.73939321934408
 20
41.32459155407123
 30
0.0
 10
-96.90096206838527
 20
41.44057726048781
 30
0.0
 10
-96.98450571531077
 20
41.50055088141026
 30
0.0
  0
SPLINE
  5
82
330
1F
100
AcDbEntity
  8
0
  6
Continuous
 62
     7
370
    25
100
AcDbSpline
210
0.0
220
0.0
230
1.0
 70
     8
 71
     3
 72
    11
 73
     7
 74
     0
 42
0.00000001
 43
0.00000001
 40
0.0
 40
0.0
 40
0.0
 40
0.0
 40
0.2347481398291974
 40
0.4753905809434811
 40
0.7285276436074702
 40
1.0
 40
1.0
 40
1.0
 40
1.0
 10
-95.26884816322743
 20
39.45575420673077
 30
0.0
 10
-95.27211987756239
 20
39.52186354887634
 30
0.0
 10
-95.2787454558503
 20
39.65574217552378
 30
0.0
 10
-95.33713711705258
 20
39.85360231751334
 30
0.0
 10
-95.42629874007619
 20
40.05025334000613
 30
0.0
 10
-95.5101006453699
 20
40.17191757745223
 30
0.0
 10
-95.55346605184923
 20
40.23487580128205
 30
0.0
  0
SPLINE
  5
83
330
1F
100
AcDbEntity
  8
0
  6
Continuous
 62
     7
370
    25
100
AcDbSpline
210
0.0
220
0.0
230
1.0
 70
     8
 71
     3
 72
    19
 73
    15
 74
     0
 42
0.00000001
 43
0.00000001
 40
0.0
 40
0.0
 40
0.0
 40
0.0
 40
0.0913038201572433
 40
0.1810100379337247
 40
0.2704052303065365
 40
0.3605128322423825
 40
0.4487380906442773
 40
0.5326754643279922
 40
0.6143756648486781
 40
0.6945588051223015
 40
0.7727136772658841
 40
0.8491229545504645
 40
0.9239338228167453
 40
1.0
 40
1.0
 40
1.0
 40
1.0
 10
-96.82391126418898
 20
38.11057692307692
 30
0.0
 10
-96.75433193026426
 20
38.11256130828547
 30
0.0
 10
-96.61639073731718
 20
38.11649535662274
 30
0.0
 10
-96.41292119629746
 20
38.15276931633203
 30
0.0
 10
-96.21629982822803
 20
38.212113246994
 30
0.0
 10
-96.02848355853993
 20
38.29256105486368
 30
0.0
 10
-95.85443959165282
 20
38.39144647009942
 30
0.0
 10
-95.69939616854657
 20
38.50805943347076
 30
0.0
 10
-95.56839523631535
 20
38.64277143248695
 30
0.0
 10
-95.46009299634909
 20
38.79072530952978
 30
0.0
 10
-95.37531221056712
 20
38.94883266134438
 30
0.0
 10
-95.31498866179021
 20
39.11319972944796
 30
0.0
 10
-95.27623812139481
 20
39.2827791221434
 30
0.0
 10
-95.27132510816905
 20
39.39777691496646
 30
0.0
 10
-95.26884816322743
 20
39.45575420673077
 30
0.0
  0
SPLINE
  5
84
330
1F
100
AcDbEntity
  8
0
  6
Continuous
 62
     7
370
    25
100
AcDbSpline
210
0.0
220
0.0
230
1.0
 70
     8
 71
     3
 72
    15
 73
    11
 74
     0
 42
0.00000001
 43
0.00000001
 40
0.0
 40
0.0
 40
0.0
 40
0.0
 40
0.1590042985173772
 40
0.3046460998968143
 40
0.4385469045795937
 40
0.5623222987759265
 40
0.6774325425257337
 40
0.7868973929387537
 40
0.893610889104269
 40
1.0
 40
1.0
 40
1.0
 40
1.0
 10
-98.56659956547102
 20
39.43349358974358
 30
0.0
 10
-98.50419213456355
 20
39.32902614530997
 30
0.0
 10
-98.38462190528159
 20
39.12887055323073
 30
0.0
 10
-98.18516078720364
 20
38.85841035440117
 30
0.0
 10
-97.97848436366665
 20
38.62853546317991
 30
0.0
 10
-97.76306212508133
 20
38.44058315679491
 30
0.0
 10
-97.54020899273235
 20
38.29260800292086
 30
0.0
 10
-97.30847015657947
 20
38.18782794170201
 30
0.0
 10
-97.06862655014463
 20
38.12247742612771
 30
0.0
 10
-96.90540020500377
 20
38.11453972983411
 30
0.0
 10
-96.82391126418898
 20
38.11057692307692
 30
0.0
  0
SPLINE
  5
86
330
1F
100
AcDbEntity
  8
0
  6
Continuous
 62
     7
370
    25
100
AcDbSpline
210
0.0
220
0.0
230
1.0
 70
     8
 71
     3
 72
    23
 73
    19
 74
     0
 42
0.00000001
 43
0.00000001
 40
0.0
 40
0.0
 40
0.0
 40
0.0
 40
0.0572103907750678
 40
0.1137002756244958
 40
0.1686859425286907
 40
0.2241583202961937
 40
0.2787210052622379
 40
0.3337973865414082
 40
0.3892466844752655
 40
0.4454002087967374
 40
0.503284562844024
 40
0.5642575909932142
 40
0.6279414764455842
 40
0.6946259085902499
 40
0.7653640256300017
 40
0.839605495717834
 40
0.9175346922926202
 40
1.0
 40
1.0
 40
1.0
 40
1.0
 10
-96.82391126418898
 20
37.29647435897436
 30
0.0
 10
-96.88386019957692
 20
37.29764692942562
 30
0.0
 10
-97.0030030752794
 20
37.29997730301146
 30
0.0
 10
-97.17875678431123
 20
37.32009122430861
 30
0.0
 10
-97.35128311067504
 20
37.34958854493954
 30
0.0
 10
-97.51841583144419
 20
37.39456123550278
 30
0.0
 10
-97.68223585706943
 20
37.45041031218723
 30
0.0
 10
-97.84128367287792
 20
37.5187889126919
 30
0.0
 10
-97.99594294721885
 20
37.6001920861343
 30
0.0
 10
-98.14640472847866
 20
37.69474574694302
 30
0.0
 10
-98.29404616752781
 20
37.80374391599711
 30
0.0
 10
-98.43827140253765
 20
37.92959378931642
 30
0.0
 10
-98.5798024201667
 20
38.07169297199025
 30
0.0
 10
-98.71922712336155
 20
38.22984371915992
 30
0.0
 10
-98.85326118732222
 20
38.40666015059391
 30
0.0
 10
-98.98527516790685
 20
38.59933816470924
 30
0.0
 10
-99.11458166291187
 20
38.80850023215559
 30
0.0
 10
-99.1958267665171
 20
38.95558843858517
 30
0.0
 10
-99.23759816322743
 20
39.03121243990385
 30
0.0
  0
CIRCLE
  5
90
330
1F
100
AcDbEntity
  8
0
  6
Continuous
 62
     7
370
    25
100
AcDbCircle
 10
-93.3353545735
 20
82.5
 30
0.0
 40
2.100000000000065
  0
SPLINE
  5
AF
330
1F
100
AcDbEntity
  8
0
  6
Continuous
 62
     7
370
    25
100
AcDbSpline
210
0.0
220
0.0
230
1.0
 70
     8
 71
     3
 72
    23
 73
    19
 74
     0
 42
0.00000001
 43
0.00000001
 40
0.0
 40
0.0
 40
0.0
 40
0.0
 40
0.0614865868946443
 40
0.1217791458177235
 40
0.1809264209156888
 40
0.2402652264294999
 40
0.2997154730618091
 40
0.3605026327534174
 40
0.4231437279464128
 40
0.4879998544894015
 40
0.5532870736877853
 40
0.6169166430135387
 40
0.6798088191445504
 40
0.7421776116175574
 40
0.8046558039158664
 40
0.8682539932332921
 40
0.9330177170745294
 40
1.0
 40
1.0
 40
1.0
 40
1.0
 10
-89.0613161119454
 20
39.44462389823718
 30
0.0
 10
-89.06280875485257
 20
39.37346356399517
 30
0.0
 10
-89.06576505455023
 20
39.23252478111976
 30
0.0
 10
-89.09966013387263
 20
39.0255521789602
 30
0.0
 10
-89.14949775681177
 20
38.82462115247792
 30
0.0
 10
-89.22377473876023
 20
38.63223219759215
 30
0.0
 10
-89.31662312282297
 20
38.44624112406684
 30
0.0
 10
-89.42966528879026
 20
38.26697404363978
 30
0.0
 10
-89.56665952207267
 20
38.0973765069977
 30
0.0
 10
-89.71884367976016
 20
37.93415488215175
 30
0.0
 10
-89.88788177420459
 20
37.78653706009749
 30
0.0
 10
-90.06675859205657
 20
37.65505618518162
 30
0.0
 10
-90.25447013888827
 20
37.54247932525713
 30
0.0
 10
-90.45316004635556
 20
37.45403644452827
 30
0.0
 10
-90.65955535110476
 20
37.38328970221862
 30
0.0
 10
-90.874624889335
 20
37.33258029922226
 30
0.0
 10
-91.0988308018564
 20
37.3013518144375
 30
0.0
 10
-91.25123409795349
 20
37.29811832774345
 30
0.0
 10
-91.32871895649669
 20
37.29647435897436
 30
0.0
  0
SPLINE
  5
B0
330
1F
100
AcDbEntity
  8
0
  6
Continuous
 62
     7
370
    25
100
AcDbSpline
210
0.0
220
0.0
230
1.0
 70
     8
 71
     3
 72
    19
 73
    15
 74
     0
 42
0.00000001
 43
0.00000001
 40
0.0
 40
0.0
 40
0.0
 40
0.0
 40
0.0969670031886385
 40
0.1877631623194242
 40
0.2723812310585991
 40
0.3513017699454443
 40
0.4243115510541526
 40
0.491881862348517
 40
0.554202887193765
 40
0.6108431885375961
 40
0.7159176243565437
 40
0.8145502358482745
 40
0.9085004640969319
 40
0.9999999999999999
 40
0.9999999999999999
 40
0.9999999999999999
 40
0.9999999999999999
 10
-90.93120793886848
 20
42.00618489583334
 30
0.0
 10
-90.84506137490354
 20
41.94349819679719
 30
0.0
 10
-90.67825049345821
 20
41.82211409231484
 30
0.0
 10
-90.44090123119587
 20
41.63974341698629
 30
0.0
 10
-90.22569844590964
 20
41.4613794619766
 30
0.0
 10
-90.03187065314137
 20
41.28817285026496
 30
0.0
 10
-89.85755629979396
 20
41.12139869258446
 30
0.0
 10
-89.70451257622229
 20
40.95917984381194
 30
0.0
 10
-89.57204508603982
 20
40.80258011279152
 30
0.0
 10
-89.42748676441602
 20
40.6031747951008
 30
0.0
 10
-89.28152571193063
 20
40.35600460446597
 30
0.0
 10
-89.15637610594948
 20
40.05303799713263
 30
0.0
 10
-89.07675806947377
 20
39.74920197030175
 30
0.0
 10
-89.06641788308907
 20
39.54525153020679
 30
0.0
 10
-89.0613161119454
 20
39.44462389823718
 30
0.0
  0
SPLINE
  5
B1
330
1F
100
AcDbEntity
  8
0
  6
Continuous
 62
     7
370
    25
100
AcDbSpline
210
0.0
220
0.0
230
1.0
 70
     8
 71
     3
 72
    15
 73
    11
 74
     0
 42
0.00000001
 43
0.00000001
 40
0.0
 40
0.0
 40
0.0
 40
0.0
 40
0.0525942815291443
 40
0.1249519739750476
 40
0.2180938989285975
 40
0.3335024107325244
 40
0.4687891785044522
 40
0.6249375859645995
 40
0.8016830479282252
 40
1.0
 40
1.0
 40
1.0
 40
1.0
 10
-91.99812751018258
 20
42.7964367988782
 30
0.0
 10
-91.98075261204372
 20
42.7809314010459
 30
0.0
 10
-91.93947383121532
 20
42.74409412501348
 30
0.0
 10
-91.86400878534145
 20
42.68378663141069
 30
0.0
 10
-91.76435279649857
 20
42.60939462995535
 30
0.0
 10
-91.64310816168677
 20
42.51734839437859
 30
0.0
 10
-91.49803932348436
 20
42.41057436421978
 30
0.0
 10
-91.329130330085
 20
42.29043777949117
 30
0.0
 10
-91.13826399669146
 20
42.15303861352912
 30
0.0
 10
-91.00282322313346
 20
42.05697776250304
 30
0.0
 10
-90.93120793886848
 20
42.00618489583334
 30
0.0
  0
SPLINE
  5
B2
330
1F
100
AcDbEntity
  8
0
  6
Continuous
 62
     7
370
    25
100
AcDbSpline
210
0.0
220
0.0
230
1.0
 70
     8
 71
     3
 72
    15
 73
    11
 74
     0
 42
0.00000001
 43
0.00000001
 40
0.0
 40
0.0
 40
0.0
 40
0.0
 40
0.1073125049355222
 40
0.2161199163495747
 40
0.3234073297049356
 40
0.4346132134596953
 40
0.5532987102602642
 40
0.6859931296549718
 40
0.8342138309427333
 40
1.0
 40
1.0
 40
1.0
 40
1.0
 10
-92.5212520093813
 20
43.82201522435898
 30
0.0
 10
-92.52026739186249
 20
43.77951047657618
 30
0.0
 10
-92.51828444070574
 20
43.69390887272957
 30
0.0
 10
-92.4946428455756
 20
43.56769832181033
 30
0.0
 10
-92.45936272174778
 20
43.44297356077077
 30
0.0
 10
-92.40935412106226
 20
43.31901599245721
 30
0.0
 10
-92.34139184107099
 20
43.19229417383171
 30
0.0
 10
-92.24908713319903
 20
43.06353039457691
 30
0.0
 10
-92.13358001340222
 20
42.92950203341208
 30
0.0
 10
-92.04493133965453
 20
42.84241573908034
 30
0.0
 10
-91.9981275101826
 20
42.79643679887821
 30
0.0
  0
SPLINE
  5
B3
330
1F
100
AcDbEntity
  8
0
  6
Continuous
 62
     7
370
    25
100
AcDbSpline
210
0.0
220
0.0
230
1.0
 70
     8
 71
     3
 72
    15
 73
    11
 74
     0
 42
0.00000001
 43
0.00000001
 40
0.0
 40
0.0
 40
0.0
 40
0.0
 40
0.1430311101154192
 40
0.2758220219306229
 40
0.4018686934691182
 40
0.527874504882859
 40
0.6504589547820667
 40
0.7659637659158585
 40
0.8808091083575647
 40
1.0
 40
1.0
 40
1.0
 40
1.0
 10
-91.35733974976593
 20
44.82692307692308
 30
0.0
 10
-91.4393569277641
 20
44.82422011093621
 30
0.0
 10
-91.59751932928816
 20
44.8190076956574
 30
0.0
 10
-91.8215405054261
 20
44.76058231223372
 30
0.0
 10
-92.02433557340564
 20
44.67175045360966
 30
0.0
 10
-92.19816286667226
 20
44.54365583950194
 30
0.0
 10
-92.34168936694063
 20
44.39094238676414
 30
0.0
 10
-92.44679932103544
 20
44.21678344902324
 30
0.0
 10
-92.50964271515372
 20
44.02443167912962
 30
0.0
 10
-92.51733463715942
 20
43.89031744683859
 30
0.0
 10
-92.5212520093813
 20
43.82201522435898
 30
0.0
  0
SPLINE
  5
B4
330
1F
100
AcDbEntity
  8
0
  6
Continuous
 62
     7
370
    25
100
AcDbSpline
210
0.0
220
0.0
230
1.0
 70
     8
 71
     3
 72
    19
 73
    15
 74
     0
 42
0.00000001
 43
0.00000001
 40
0.0
 40
0.0
 40
0.0
 40
0.0
 40
0.0984522330833783
 40
0.1895959819220319
 40
0.2741362024737981
 40
0.3521216512623194
 40
0.4236997030543262
 40
0.4890403619619341
 40
0.5489522963863619
 40
0.601909863183876
 40
0.7012796068277763
 40
0.800434430335776
 40
0.8985628178445919
 40
1.0
 40
1.0
 40
1.0
 40
1.0
 10
-89.80704678101591
 20
43.80929487179487
 30
0.0
 10
-89.8459284710867
 20
43.85939176663226
 30
0.0
 10
-89.92080551528248
 20
43.95586667299521
 30
0.0
 10
-90.03452974659629
 20
44.09092732377992
 30
0.0
 10
-90.14155512229287
 20
44.21446686932357
 30
0.0
 10
-90.24780800099852
 20
44.32148810811462
 30
0.0
 10
-90.34509806808175
 20
44.42000639915197
 30
0.0
 10
-90.4412019024167
 20
44.50285425838506
 30
0.0
 10
-90.53240687268043
 20
44.57266184989223
 30
0.0
 10
-90.64710727689642
 20
44.64725723138311
 30
0.0
 10
-90.79277711453665
 20
44.71942881414304
 30
0.0
 10
-90.97393130581753
 20
44.78147917220239
 30
0.0
 10
-91.16336752391669
 20
44.81961279768062
 30
0.0
 10
-91.29197158988161
 20
44.8244595309168
 30
0.0
 10
-91.35733974976593
 20
44.82692307692308
 30
0.0
  0
SPLINE
  5
B6
330
1F
100
AcDbEntity
  8
0
  6
Continuous
 62
     7
370
    25
100
AcDbSpline
210
0.0
220
0.0
230
1.0
 70
     8
 71
     3
 72
    19
 73
    15
 74
     0
 42
0.00000001
 43
0.00000001
 40
0.0
 40
0.0
 40
0.0
 40
0.0
 40
0.1072111709060897
 40
0.2126125718600345
 40
0.3185474150997257
 40
0.4264887226768758
 40
0.4833296759051119
 40
0.5432754538654769
 40
0.6079662308887439
 40
0.6771918825831958
 40
0.7507359217939213
 40
0.8287479663052465
 40
0.9122080591013307
 40
1.0
 40
1.0
 40
1.0
 40
1.0
 10
-91.27783754624028
 20
45.64102564102564
 30
0.0
 10
-91.18427291226199
 20
45.63790348120654
 30
0.0
 10
-90.99872305493699
 20
45.63171186494784
 30
0.0
 10
-90.72570815342628
 20
45.57456639072265
 30
0.0
 10
-90.4612809072299
 20
45.48577724303802
 30
0.0
 10
-90.24936322168237
 20
45.38003107962242
 30
0.0
 10
-90.08344540096635
 20
45.27555403865791
 30
0.0
 10
-89.95704828013113
 20
45.18015082604961
 30
0.0
 10
-89.82826469646639
 20
45.07055569199913
 30
0.0
 10
-89.69848224262545
 20
44.94444690274168
 30
0.0
 10
-89.56641863665801
 20
44.80435009284054
 30
0.0
 10
-89.43268250723597
 20
44.64907834229416
 30
0.0
 10
-89.29602222141719
 20
44.4800311921495
 30
0.0
 10
-89.20813440763565
 20
44.35932046419033
 30
0.0
 10
-89.16307893245825
 20
44.29743840144231
 30
0.0
  0
SPLINE
  5
B7
330
1F
100
AcDbEntity
  8
0
  6
Continuous
 62
     7
370
    25
100
AcDbSpline
210
0.0
220
0.0
230
1.0
 70
     8
 71
     3
 72
    19
 73
    15
 74
     0
 42
0.00000001
 43
0.00000001
 40
0.0
 40
0.0
 40
0.0
 40
0.0
 40
0.0837805942247623
 40
0.1657704371570569
 40
0.2462659679845066
 40
0.32768167529377
 40
0.4087112135170551
 40
0.4896248877334647
 40
0.5716147306657583
 40
0.6562070036946953
 40
0.7416982914258211
 40
0.8265566487105886
 40
0.9119938689865389
 40
0.9999999999999999
 40
0.9999999999999999
 40
0.9999999999999999
 40
0.9999999999999999
 10
-93.23359175297105
 20
43.7886242988782
 30
0.0
 10
-93.2306447689777
 20
43.87260973303413
 30
0.0
 10
-93.22481379070173
 20
44.03878547174401
 30
0.0
 10
-93.17509337411629
 20
44.28141170977784
 30
0.0
 10
-93.09754291022601
 20
44.51377304640362
 30
0.0
 10
-92.98534516578005
 20
44.73069795859698
 30
0.0
 10
-92.84675996034109
 20
44.93187893891366
 30
0.0
 10
-92.68225905780444
 20
45.11374721034174
 30
0.0
 10
-92.48876182184479
 20
45.27004264309937
 30
0.0
 10
-92.27334998321828
 20
45.4029062547917
 30
0.0
 10
-92.04031877117777
 20
45.50890178292305
 30
0.0
 10
-91.79541663432803
 20
45.58613676558966
 30
0.0
 10
-91.53974403137128
 20
45.63140118011075
 30
0.0
 10
-91.36599750831286
 20
45.63778596519706
 30
0.0
 10
-91.27783754624028
 20
45.64102564102564
 30
0.0
  0
SPLINE
  5
B8
330
1F
100
AcDbEntity
  8
0
  6
Continuous
 62
     7
370
    25
100
AcDbSpline
210
0.0
220
0.0
230
1.0
 70
     8
 71
     3
 72
    15
 73
    11
 74
     0
 42
0.00000001
 43
0.00000001
 40
0.0
 40
0.0
 40
0.0
 40
0.0
 40
0.1335024395772752
 40
0.2625504643424558
 40
0.3882518563240241
 40
0.5115309837160421
 40
0.633734147794856
 40
0.7554017923417762
 40
0.8775569158628297
 40
1.0
 40
1.0
 40
1.0
 40
1.0
 10
-92.78996945729796
 20
42.58019080528846
 30
0.0
 10
-92.82505309814081
 20
42.62691333311482
 30
0.0
 10
-92.89404978631585
 20
42.71879945455882
 30
0.0
 10
-92.98522435774957
 20
42.86237813654193
 30
0.0
 10
-93.06211212206648
 20
43.00907467051402
 30
0.0
 10
-93.1239923972638
 20
43.15942071734857
 30
0.0
 10
-93.17403263137936
 20
43.31228633706058
 30
0.0
 10
-93.20882343118687
 20
43.4688191845239
 30
0.0
 10
-93.23026774463459
 20
43.62795662134423
 30
0.0
 10
-93.2324828809136
 20
43.73502638932916
 30
0.0
 10
-93.23359175297107
 20
43.78862429887821
 30
0.0
  0
SPLINE
  5
B9
330
1F
100
AcDbEntity
  8
0
  6
Continuous
 62
     7
370
    25
100
AcDbSpline
210
0.0
220
0.0
230
1.0
 70
     8
 71
     3
 72
    15
 73
    11
 74
     0
 42
0.00000001
 43
0.00000001
 40
0.0
 40
0.0
 40
0.0
 40
0.0
 40
0.1815319715023526
 40
0.3470753060162334
 40
0.4955587263078087
 40
0.6290766435747199
 40
0.7455243378854586
 40
0.8458335786603298
 40
0.9307830770433562
 40
1.0
 40
1.0
 40
1.0
 40
1.0
 10
-91.48931340761848
 20
41.50055088141026
 30
0.0
 10
-91.57281383082329
 20
41.56004718598825
 30
0.0
 10
-91.73246028150884
 20
41.67379958975136
 30
0.0
 10
-91.95589429343536
 20
41.84240722116979
 30
0.0
 10
-92.1554256035029
 20
41.99754487133364
 30
0.0
 10
-92.33207092281226
 20
42.13705153002028
 30
0.0
 10
-92.48126021321026
 20
42.2670117710221
 30
0.0
 10
-92.60844741825213
 20
42.38046045156428
 30
0.0
 10
-92.70894012067865
 20
42.48345560198531
 30
0.0
 10
-92.76486193924339
 20
42.55021671238855
 30
0.0
 10
-92.78996945729796
 20
42.58019080528846
 30
0.0
  0
SPLINE
  5
BA
330
1F
100
AcDbEntity
  8
0
  6
Continuous
 62
     7
370
    25
100
AcDbSpline
210
0.0
220
0.0
230
1.0
 70
     8
 71
     3
 72
    15
 73
    11
 74
     0
 42
0.00000001
 43
0.00000001
 40
0.0
 40
0.0
 40
0.0
 40
0.0
 40
0.0902854568194329
 40
0.1900994020145669
 40
0.299186878772325
 40
0.4183616683171868
 40
0.5483592682587279
 40
0.6887747657773196
 40
0.8390723754207394
 40
1.0
 40
1.0
 40
1.0
 40
1.0
 10
-90.05827374415693
 20
40.23487580128205
 30
0.0
 10
-90.09370662565436
 20
40.28043783287034
 30
0.0
 10
-90.16831188126913
 20
40.37637039238351
 30
0.0
 10
-90.29845800686549
 20
40.5166616492731
 30
0.0
 10
-90.44644235143684
 20
40.66520419852318
 30
0.0
 10
-90.61609628358134
 20
40.81903315533841
 30
0.0
 10
-90.8049458852641
 20
40.98129521172982
 30
0.0
 10
-91.01513217869369
 20
41.1489810225645
 30
0.0
 10
-91.24420091165179
 20
41.32459155407123
 30
0.0
 10
-91.40576976069298
 20
41.44057726048781
 30
0.0
 10
-91.48931340761848
 20
41.50055088141026
 30
0.0
  0
SPLINE
  5
BB
330
1F
100
AcDbEntity
  8
0
  6
Continuous
 62
     7
370
    25
100
AcDbSpline
210
0.0
220
0.0
230
1.0
 70
     8
 71
     3
 72
    11
 73
     7
 74
     0
 42
0.00000001
 43
0.00000001
 40
0.0
 40
0.0
 40
0.0
 40
0.0
 40
0.2347481398291952
 40
0.4753905809434825
 40
0.728527643607471
 40
0.9999999999999999
 40
0.9999999999999999
 40
0.9999999999999999
 40
0.9999999999999999
 10
-89.77365585553515
 20
39.45575420673077
 30
0.0
 10
-89.7769275698701
 20
39.52186354887633
 30
0.0
 10
-89.78355314815796
 20
39.65574217552378
 30
0.0
 10
-89.84194480936033
 20
39.85360231751334
 30
0.0
 10
-89.93110643238384
 20
40.05025334000611
 30
0.0
 10
-90.0149083376776
 20
40.17191757745222
 30
0.0
 10
-90.05827374415693
 20
40.23487580128205
 30
0.0
  0
SPLINE
  5
BC
330
1F
100
AcDbEntity
  8
0
  6
Continuous
 62
     7
370
    25
100
AcDbSpline
210
0.0
220
0.0
230
1.0
 70
     8
 71
     3
 72
    19
 73
    15
 74
     0
 42
0.00000001
 43
0.00000001
 40
0.0
 40
0.0
 40
0.0
 40
0.0
 40
0.0913038201572433
 40
0.1810100379337247
 40
0.2704052303065365
 40
0.3605128322423825
 40
0.4487380906442773
 40
0.5326754643279922
 40
0.6143756648486781
 40
0.6945588051223015
 40
0.7727136772658841
 40
0.8491229545504645
 40
0.9239338228167453
 40
1.0
 40
1.0
 40
1.0
 40
1.0
 10
-91.32871895649669
 20
38.11057692307692
 30
0.0
 10
-91.25913962257195
 20
38.11256130828547
 30
0.0
 10
-91.1211984296249
 20
38.11649535662274
 30
0.0
 10
-90.91772888860518
 20
38.15276931633203
 30
0.0
 10
-90.72110752053574
 20
38.212113246994
 30
0.0
 10
-90.53329125084767
 20
38.29256105486368
 30
0.0
 10
-90.35924728396056
 20
38.39144647009942
 30
0.0
 10
-90.20420386085428
 20
38.50805943347076
 30
0.0
 10
-90.07320292862309
 20
38.64277143248695
 30
0.0
 10
-89.96490068865681
 20
38.79072530952978
 30
0.0
 10
-89.88011990287482
 20
38.94883266134438
 30
0.0
 10
-89.81979635409793
 20
39.11319972944796
 30
0.0
 10
-89.78104581370253
 20
39.2827791221434
 30
0.0
 10
-89.77613280047677
 20
39.39777691496646
 30
0.0
 10
-89.77365585553515
 20
39.45575420673077
 30
0.0
  0
SPLINE
  5
BD
330
1F
100
AcDbEntity
  8
0
  6
Continuous
 62
     7
370
    25
100
AcDbSpline
210
0.0
220
0.0
230
1.0
 70
     8
 71
     3
 72
    15
 73
    11
 74
     0
 42
0.00000001
 43
0.00000001
 40
0.0
 40
0.0
 40
0.0
 40
0.0
 40
0.1590042985173772
 40
0.3046460998968143
 40
0.4385469045795937
 40
0.5623222987759265
 40
0.6774325425257337
 40
0.7868973929387537
 40
0.893610889104269
 40
1.0
 40
1.0
 40
1.0
 40
1.0
 10
-93.07140725777873
 20
39.43349358974358
 30
0.0
 10
-93.00899982687127
 20
39.32902614530997
 30
0.0
 10
-92.88942959758934
 20
39.12887055323073
 30
0.0
 10
-92.68996847951136
 20
38.85841035440117
 30
0.0
 10
-92.4832920559744
 20
38.62853546317991
 30
0.0
 10
-92.26786981738903
 20
38.44058315679491
 30
0.0
 10
-92.04501668504005
 20
38.29260800292086
 30
0.0
 10
-91.8132778488872
 20
38.18782794170201
 30
0.0
 10
-91.57343424245235
 20
38.12247742612771
 30
0.0
 10
-91.41020789731148
 20
38.11453972983411
 30
0.0
 10
-91.32871895649669
 20
38.11057692307692
 30
0.0
  0
SPLINE
  5
BF
330
1F
100
AcDbEntity
  8
0
  6
Continuous
 62
     7
370
    25
100
AcDbSpline
210
0.0
220
0.0
230
1.0
 70
     8
 71
     3
 72
    23
 73
    19
 74
     0
 42
0.00000001
 43
0.00000001
 40
0.0
 40
0.0
 40
0.0
 40
0.0
 40
0.0572103907750678
 40
0.1137002756244958
 40
0.1686859425286907
 40
0.2241583202961937
 40
0.2787210052622379
 40
0.3337973865414082
 40
0.3892466844752655
 40
0.4454002087967374
 40
0.503284562844024
 40
0.5642575909932142
 40
0.6279414764455842
 40
0.6946259085902499
 40
0.7653640256300017
 40
0.839605495717834
 40
0.9175346922926202
 40
1.0
 40
1.0
 40
1.0
 40
1.0
 10
-91.32871895649669
 20
37.29647435897436
 30
0.0
 10
-91.38866789188462
 20
37.29764692942562
 30
0.0
 10
-91.50781076758712
 20
37.29997730301146
 30
0.0
 10
-91.68356447661894
 20
37.32009122430861
 30
0.0
 10
-91.85609080298276
 20
37.34958854493954
 30
0.0
 10
-92.0232235237519
 20
37.39456123550278
 30
0.0
 10
-92.18704354937714
 20
37.45041031218723
 30
0.0
 10
-92.34609136518566
 20
37.5187889126919
 30
0.0
 10
-92.50075063952656
 20
37.6001920861343
 30
0.0
 10
-92.65121242078638
 20
37.69474574694302
 30
0.0
 10
-92.79885385983552
 20
37.80374391599711
 30
0.0
 10
-92.94307909484536
 20
37.92959378931642
 30
0.0
 10
-93.08461011247442
 20
38.07169297199025
 30
0.0
 10
-93.22403481566928
 20
38.22984371915992
 30
0.0
 10
-93.35806887962994
 20
38.40666015059391
 30
0.0
 10
-93.4900828602146
 20
38.59933816470924
 30
0.0
 10
-93.61938935521957
 20
38.80850023215559
 30
0.0
 10
-93.70063445882482
 20
38.95558843858517
 30
0.0
 10
-93.74240585553514
 20
39.03121243990385
 30
0.0
  0
LINE
  5
CA
330
1F
100
AcDbEntity
  8
0
  6
Continuous
 62
     7
370
    25
100
AcDbLine
 10
-104.8043424541
 20
40.8581730769
 30
0.0
 11
-101.9677038323
 21
40.8581730769
 31
0.0
  0
LINE
  5
CB
330
1F
100
AcDbEntity
  8
0
  6
Continuous
 62
     7
370
    25
100
AcDbLine
 10
-103.3669426143
 20
43.8903871194
 30
0.0
 11
-104.8043424541
 21
40.8581730769
 31
0.0
  0
LINE
  5
CC
330
1F
100
AcDbEntity
  8
0
  6
Continuous
 62
     7
370
    25
100
AcDbLine
 10
-101.9677038323
 20
40.8581730769
 30
0.0
 11
-103.3669426143
 21
43.8903871194
 31
0.0
  0
LINE
  5
CD
330
1F
100
AcDbEntity
  8
0
  6
Continuous
 62
     7
370
    25
100
AcDbLine
 10
-72.3722135478
 20
37.5
 30
0.0
 11
-76.8497776504
 21
37.5
 31
0.0
  0
LINE
  5
CE
330
1F
100
AcDbEntity
  8
0
  6
Continuous
 62
     7
370
    25
100
AcDbLine
 10
-72.3722135478
 20
38.3141025641
 30
0.0
 11
-72.3722135478
 21
37.5
 31
0.0
  0
LINE
  5
CF
330
1F
100
AcDbEntity
  8
0
  6
Continuous
 62
     7
370
    25
100
AcDbLine
 10
-76.1374379068
 20
38.3141025641
 30
0.0
 11
-72.3722135478
 21
38.3141025641
 31
0.0
  0
LINE
  5
D0
330
1F
100
AcDbEntity
  8
0
  6
Continuous
 62
     7
370
    25
100
AcDbLine
 10
-76.1374379068
 20
41.3669871795
 30
0.0
 11
-76.1374379068
 21
38.3141025641
 31
0.0
  0
LINE
  5
D1
330
1F
100
AcDbEntity
  8
0
  6
Continuous
 62
     7
370
    25
100
AcDbLine
 10
-72.3722135478
 20
41.3669871795
 30
0.0
 11
-76.1374379068
 21
41.3669871795
 31
0.0
  0
LINE
  5
D2
330
1F
100
AcDbEntity
  8
0
  6
Continuous
 62
     7
370
    25
100
AcDbLine
 10
-72.3722135478
 20
42.1810897436
 30
0.0
 11
-72.3722135478
 21
41.3669871795
 31
0.0
  0
LINE
  5
D3
330
1F
100
AcDbEntity
  8
0
  6
Continuous
 62
     7
370
    25
100
AcDbLine
 10
-76.1374379068
 20
42.1810897436
 30
0.0
 11
-72.3722135478
 21
42.1810897436
 31
0.0
  0
LINE
  5
D4
330
1F
100
AcDbEntity
  8
0
  6
Continuous
 62
     7
370
    25
100
AcDbLine
 10
-76.1374379068
 20
44.6233974359
 30
0.0
 11
-76.1374379068
 21
42.1810897436
 31
0.0
  0
LINE
  5
D5
330
1F
100
AcDbEntity
  8
0
  6
Continuous
 62
     7
370
    25
100
AcDbLine
 10
-72.3722135478
 20
44.6233974359
 30
0.0
 11
-76.1374379068
 21
44.6233974359
 31
0.0
  0
LINE
  5
D6
330
1F
100
AcDbEntity
  8
0
  6
Continuous
 62
     7
370
    25
100
AcDbLine
 10
-72.3722135478
 20
45.4375
 30
0.0
 11
-72.3722135478
 21
44.6233974359
 31
0.0
  0
LINE
  5
D7
330
1F
100
AcDbEntity
  8
0
  6
Continuous
 62
     7
370
    25
100
AcDbLine
 10
-76.8497776504
 20
45.4375
 30
0.0
 11
-72.3722135478
 21
45.4375
 31
0.0
  0
LINE
  5
D8
330
1F
100
AcDbEntity
  8
0
  6
Continuous
 62
     7
370
    25
100
AcDbLine
 10
-76.8497776504
 20
37.5
 30
0.0
 11
-76.8497776504
 21
45.4375
 31
0.0
  0
LINE
  5
D9
330
1F
100
AcDbEntity
  8
0
  6
Continuous
 62
     7
370
    25
100
AcDbLine
 10
-86.7207712402
 20
37.5
 30
0.0
 11
-87.4331109837
 21
37.5
 31
0.0
  0
LINE
  5
DA
330
1F
100
AcDbEntity
  8
0
  6
Continuous
 62
     7
370
    25
100
AcDbLine
 10
-86.7207712402
 20
45.4375
 30
0.0
 11
-86.7207712402
 21
37.5
 31
0.0
  0
LINE
  5
DB
330
1F
100
AcDbEntity
  8
0
  6
Continuous
 62
     7
370
    25
100
AcDbLine
 10
-87.4331109837
 20
45.4375
 30
0.0
 11
-86.7207712402
 21
45.4375
 31
0.0
  0
LINE
  5
DC
330
1F
100
AcDbEntity
  8
0
  6
Continuous
 62
     7
370
    25
100
AcDbLine
 10
-87.4331109837
 20
37.5
 30
0.0
 11
-87.4331109837
 21
45.4375
 31
0.0
  0
LINE
  5
DD
330
1F
100
AcDbEntity
  8
0
  6
Continuous
 62
     7
370
    25
100
AcDbLine
 10
-94.6582712402
 20
44.2974384014
 30
0.0
 11
-95.3022390887
 21
43.8092948718
 31
0.0
  0
LINE
  5
DE
330
1F
100
AcDbEntity
  8
0
  6
Continuous
 62
     7
370
    25
100
AcDbLine
 10
-99.2375981632
 20
39.0312124399
 30
0.0
 11
-98.5665995655
 21
39.4334935897
 31
0.0
  0
LINE
  5
DF
330
1F
100
AcDbEntity
  8
0
  6
Continuous
 62
     7
370
    25
100
AcDbLine
 10
-111.1438481632
 20
37.5
 30
0.0
 11
-111.1438481632
 21
41.2731745793
 31
0.0
  0
LINE
  5
E0
330
1F
100
AcDbEntity
  8
0
  6
Continuous
 62
     7
370
    25
100
AcDbLine
 10
-110.4315084196
 20
37.5
 30
0.0
 11
-111.1438481632
 21
37.5
 31
0.0
  0
LINE
  5
E1
330
1F
100
AcDbEntity
  8
0
  6
Continuous
 62
     7
370
    25
100
AcDbLine
 10
-110.4315084196
 20
41.2731745793
 30
0.0
 11
-110.4315084196
 21
37.5
 31
0.0
  0
LINE
  5
E2
330
1F
100
AcDbEntity
  8
0
  6
Continuous
 62
     7
370
    25
100
AcDbLine
 10
-107.8874379068
 20
45.4375
 30
0.0
 11
-110.4315084196
 21
41.2731745793
 31
0.0
  0
LINE
  5
E3
330
1F
100
AcDbEntity
  8
0
  6
Continuous
 62
     7
370
    25
100
AcDbLine
 10
-108.703130515
 20
45.4375
 30
0.0
 11
-107.8874379068
 21
45.4375
 31
0.0
  0
LINE
  5
E4
330
1F
100
AcDbEntity
  8
0
  6
Continuous
 62
     7
370
    25
100
AcDbLine
 10
-110.7860882474
 20
42.0268554688
 30
0.0
 11
-108.703130515
 21
45.4375
 31
0.0
  0
LINE
  5
E5
330
1F
100
AcDbEntity
  8
0
  6
Continuous
 62
     7
370
    25
100
AcDbLine
 10
-112.8722260679
 20
45.4375
 30
0.0
 11
-110.7860882474
 21
42.0268554688
 31
0.0
  0
LINE
  5
E6
330
1F
100
AcDbEntity
  8
0
  6
Continuous
 62
     7
370
    25
100
AcDbLine
 10
-113.687918676
 20
45.4375
 30
0.0
 11
-112.8722260679
 21
45.4375
 31
0.0
  0
LINE
  5
E7
330
1F
100
AcDbEntity
  8
0
  6
Continuous
 62
     7
370
    25
100
AcDbLine
 10
-111.1438481632
 20
41.2731745793
 30
0.0
 11
-113.687918676
 21
45.4375
 31
0.0
  0
LINE
  5
E8
330
1F
100
AcDbEntity
  8
0
  6
Continuous
 62
     7
370
    25
100
AcDbLine
 10
-103.3353545735
 20
-5.0
 30
0.0
 11
-103.3353545735
 21
0.0
 31
0.0
  0
LINE
  5
E9
330
1F
100
AcDbEntity
  8
0
  6
Continuous
 62
     7
370
    25
100
AcDbLine
 10
-103.3353545735
 20
-5.0
 30
0.0
 11
-122.4353545735
 21
-5.0
 31
0.0
  0
LINE
  5
EA
330
1F
100
AcDbEntity
  8
0
  6
Continuous
 62
     7
370
    25
100
AcDbLine
 10
-122.4353545735
 20
80.0
 30
0.0
 11
-122.4353545735
 21
-5.0
 31
0.0
  0
LINE
  5
EB
330
1F
100
AcDbEntity
  8
0
  6
Continuous
 62
     7
370
    25
100
AcDbLine
 10
-122.4353545735
 20
80.0
 30
0.0
 11
-103.3353545735
 21
80.0
 31
0.0
  0
LINE
  5
EC
330
1F
100
AcDbEntity
  8
0
  6
Continuous
 62
     7
370
    25
100
AcDbLine
 10
-103.3353545735
 20
85.0
 30
0.0
 11
-103.3353545735
 21
80.0
 31
0.0
  0
LINE
  5
ED
330
1F
100
AcDbEntity
  8
0
  6
Continuous
 62
     7
370
    25
100
AcDbLine
 10
-103.3353545735
 20
85.0
 30
0.0
 11
-97.6654815924
 21
85.0
 31
0.0
  0
LINE
  5
EE
330
1F
100
AcDbEntity
  8
0
  6
Continuous
 62
     7
370
    25
100
AcDbLine
 10
-89.0052275546
 20
85.0
 30
0.0
 11
-83.3353545735
 21
85.0
 31
0.0
  0
LINE
  5
EF
330
1F
100
AcDbEntity
  8
0
  6
Continuous
 62
     7
370
    25
100
AcDbLine
 10
-83.3353545735
 20
85.0
 30
0.0
 11
-83.3353545735
 21
80.0
 31
0.0
  0
LINE
  5
F0
330
1F
100
AcDbEntity
  8
0
  6
Continuous
 62
     7
370
    25
100
AcDbLine
 10
-83.3353545735
 20
80.0
 30
0.0
 11
-64.2353545735
 21
80.0
 31
0.0
  0
LINE
  5
F1
330
1F
100
AcDbEntity
  8
0
  6
Continuous
 62
     7
370
    25
100
AcDbLine
 10
-64.2353545735
 20
80.0
 30
0.0
 11
-64.2353545735
 21
-5.0
 31
0.0
  0
LINE
  5
F2
330
1F
100
AcDbEntity
  8
0
  6
Continuous
 62
     7
370
    25
100
AcDbLine
 10
-64.2353545735
 20
-5.0
 30
0.0
 11
-83.3353545735
 21
-5.0
 31
0.0
  0
LINE
  5
F3
330
1F
100
AcDbEntity
  8
0
  6
Continuous
 62
     7
370
    25
100
AcDbLine
 10
-83.3353545735
 20
-5.0
 30
0.0
 11
-83.3353545735
 21
0.0
 31
0.0
  0
LINE
  5
F4
330
1F
100
AcDbEntity
  8
0
  6
Continuous
 62
     7
370
    25
100
AcDbLine
 10
-91.2353545735
 20
0.0
 30
0.0
 11
-83.3353545735
 21
0.0
 31
0.0
  0
LINE
  5
F5
330
1F
100
AcDbEntity
  8
0
  6
Continuous
 62
     7
370
    25
100
AcDbLine
 10
-91.2353545735
 20
0.0
 30
0.0
 11
-91.2353545735
 21
5.0
 31
0.0
  0
LINE
  5
F6
330
1F
100
AcDbEntity
  8
0
  6
Continuous
 62
     7
370
    25
100
AcDbLine
 10
-91.2353545735
 20
5.0
 30
0.0
 11
-88.3353545735
 21
5.0
 31
0.0
  0
LINE
  5
F7
330
1F
100
AcDbEntity
  8
0
  6
Continuous
 62
     7
370
    25
100
AcDbLine
 10
-88.3353545735
 20
5.0
 30
0.0
 11
-88.3353545735
 21
15.0
 31
0.0
  0
LINE
  5
F8
330
1F
100
AcDbEntity
  8
0
  6
Continuous
 62
     7
370
    25
100
AcDbLine
 10
-88.3353545735
 20
15.0
 30
0.0
 11
-98.3353545735
 21
15.0
 31
0.0
  0
LINE
  5
F9
330
1F
100
AcDbEntity
  8
0
  6
Continuous
 62
     7
370
    25
100
AcDbLine
 10
-98.3353545735
 20
15.0
 30
0.0
 11
-98.3353545735
 21
5.0
 31
0.0
  0
LINE
  5
FA
330
1F
100
AcDbEntity
  8
0
  6
Continuous
 62
     7
370
    25
100
AcDbLine
 10
-98.3353545735
 20
5.0
 30
0.0
 11
-95.4353545735
 21
5.0
 31
0.0
  0
LINE
  5
FB
330
1F
100
AcDbEntity
  8
0
  6
Continuous
 62
     7
370
    25
100
AcDbLine
 10
-95.4353545735
 20
5.0
 30
0.0
 11
-95.4353545735
 21
0.0
 31
0.0
  0
LINE
  5
FC
330
1F
100
AcDbEntity
  8
0
  6
Continuous
 62
     7
370
    25
100
AcDbLine
 10
-103.3353545735
 20
0.0
 30
0.0
 11
-95.4353545735
 21
0.0
 31
0.0
  0
LINE
  5
FD
330
1F
100
AcDbEntity
  8
0
  6
Continuous
 62
     7
370
    25
100
AcDbLine
 10
-107.1750981632
 20
37.5
 30
0.0
 11
-103.4098738043
 21
45.4375
 31
0.0
  0
LINE
  5
FE
330
1F
100
AcDbEntity
  8
0
  6
Continuous
 62
     7
370
    25
100
AcDbLine
 10
-106.3975666127
 20
37.5
 30
0.0
 11
-107.1750981632
 21
37.5
 31
0.0
  0
LINE
  5
FF
330
1F
100
AcDbEntity
  8
0
  6
Continuous
 62
     7
370
    25
100
AcDbLine
 10
-105.1907231632
 20
40.0440705128
 30
0.0
 11
-106.3975666127
 21
37.5
 31
0.0
  0
LINE
  5
100
330
1F
100
AcDbEntity
  8
0
  6
Continuous
 62
     7
370
    25
100
AcDbLine
 10
-101.5924534317
 20
40.0440705128
 30
0.0
 11
-105.1907231632
 21
40.0440705128
 31
0.0
  0
LINE
  5
101
330
1F
100
AcDbEntity
  8
0
  6
Continuous
 62
     7
370
    25
100
AcDbLine
 10
-100.4190009076
 20
37.5
 30
0.0
 11
-101.5924534317
 21
40.0440705128
 31
0.0
  0
LINE
  5
102
330
1F
100
AcDbEntity
  8
0
  6
Continuous
 62
     7
370
    25
100
AcDbLine
 10
-99.6446494453
 20
37.5
 30
0.0
 11
-100.4190009076
 21
37.5
 31
0.0
  0
LINE
  5
103
330
1F
100
AcDbEntity
  8
0
  6
Continuous
 62
     7
370
    25
100
AcDbLine
 10
-103.3081109837
 20
45.4375
 30
0.0
 11
-99.6446494453
 21
37.5
 31
0.0
  0
LINE
  5
104
330
1F
100
AcDbEntity
  8
0
  6
Continuous
 62
     7
370
    25
100
AcDbLine
 10
-103.4098738043
 20
45.4375
 30
0.0
 11
-103.3081109837
 21
45.4375
 31
0.0
  0
LINE
  5
105
330
1F
100
AcDbEntity
  8
0
  6
Continuous
 62
     7
370
    25
100
AcDbLine
 10
-89.1630789325
 20
44.2974384014
 30
0.0
 11
-89.807046781
 21
43.8092948718
 31
0.0
  0
LINE
  5
106
330
1F
100
AcDbEntity
  8
0
  6
Continuous
 62
     7
370
    25
100
AcDbLine
 10
-93.7424058555
 20
39.0312124399
 30
0.0
 11
-93.0714072578
 21
39.4334935897
 31
0.0
  0
LINE
  5
107
330
1F
100
AcDbEntity
  8
0
  6
Continuous
 62
     7
370
    25
100
AcDbLine
 10
-84.2784635478
 20
43.7329727564
 30
0.0
 11
-84.2784635478
 21
37.5
 31
0.0
  0
LINE
  5
108
330
1F
100
AcDbEntity
  8
0
  6
Continuous
 62
     7
370
    25
100
AcDbLine
 10
-79.0472185559
 20
37.5
 30
0.0
 11
-84.2784635478
 21
43.7329727564
 31
0.0
  0
LINE
  5
109
330
1F
100
AcDbEntity
  8
0
  6
Continuous
 62
     7
370
    25
100
AcDbLine
 10
-78.8850340607
 20
37.5
 30
0.0
 11
-79.0472185559
 21
37.5
 31
0.0
  0
LINE
  5
10A
330
1F
100
AcDbEntity
  8
0
  6
Continuous
 62
     7
370
    25
100
AcDbLine
 10
-78.8850340607
 20
45.4375
 30
0.0
 11
-78.8850340607
 21
37.5
 31
0.0
  0
LINE
  5
10B
330
1F
100
AcDbEntity
  8
0
  6
Continuous
 62
     7
370
    25
100
AcDbLine
 10
-79.5973738043
 20
45.4375
 30
0.0
 11
-78.8850340607
 21
45.4375
 31
0.0
  0
LINE
  5
10C
330
1F
100
AcDbEntity
  8
0
  6
Continuous
 62
     7
370
    25
100
AcDbLine
 10
-79.5973738043
 20
39.190216847
 30
0.0
 11
-79.5973738043
 21
45.4375
 31
0.0
  0
LINE
  5
10D
330
1F
100
AcDbEntity
  8
0
  6
Continuous
 62
     7
370
    25
100
AcDbLine
 10
-84.8413391488
 20
45.4375
 30
0.0
 11
-79.5973738043
 21
39.190216847
 31
0.0
  0
LINE
  5
10E
330
1F
100
AcDbEntity
  8
0
  6
Continuous
 62
     7
370
    25
100
AcDbLine
 10
-84.9908032914
 20
45.4375
 30
0.0
 11
-84.8413391488
 21
45.4375
 31
0.0
  0
LINE
  5
10F
330
1F
100
AcDbEntity
  8
0
  6
Continuous
 62
     7
370
    25
100
AcDbLine
 10
-84.9908032914
 20
37.5
 30
0.0
 11
-84.9908032914
 21
45.4375
 31
0.0
  0
LINE
  5
110
330
1F
100
AcDbEntity
  8
0
  6
Continuous
 62
     7
370
    25
100
AcDbLine
 10
-84.2784635478
 20
37.5
 30
0.0
 11
-84.9908032914
 21
37.5
 31
0.0
  0
ARC
  5
111
330
1F
100
AcDbEntity
  8
0
  6
Continuous
 62
     7
370
    25
100
AcDbCircle
 10
-93.3353545735
 20
82.5
 30
0.0
 40
5.00000000000005
100
AcDbArc
 50
30.0
 51
150.0
  0
ENDSEC
  0
SECTION
  2
OBJECTS
  0
DICTIONARY
  5
C
330
0
100
AcDbDictionary
281
     1
  3
ACAD_GROUP
350
D
  3
ACAD_LAYOUT
350
1A
  3
ACAD_MLINESTYLE
350
17
  3
ACAD_PLOTSETTINGS
350
19
  3
ACAD_PLOTSTYLENAME
350
E
  3
ACAD_SCALELIST
350
47
  3
DWGPROPS
350
112
  0
DICTIONARY
  5
D
102
{ACAD_REACTORS
330
C
102
}
330
C
100
AcDbDictionary
281
     1
  0
DICTIONARY
  5
1A
102
{ACAD_REACTORS
330
C
102
}
330
C
100
AcDbDictionary
281
     1
  3
Layout1
350
1E
  3
Layout2
350
26
  3
Model
350
22
  0
DICTIONARY
  5
17
102
{ACAD_REACTORS
330
C
102
}
330
C
100
AcDbDictionary
281
     1
  3
Standard
350
18
  0
DICTIONARY
  5
19
102
{ACAD_REACTORS
330
C
102
}
330
C
100
AcDbDictionary
281
     1
  0
ACDBDICTIONARYWDFLT
  5
E
102
{ACAD_REACTORS
330
C
102
}
330
C
100
AcDbDictionary
281
     1
  3
Normal
350
F
100
AcDbDictionaryWithDefault
340
F
  0
DICTIONARY
  5
47
102
{ACAD_REACTORS
330
C
102
}
330
C
100
AcDbDictionary
281
     1
  3
A0
350
48
  3
A1
350
49
  3
A2
350
4A
  3
A3
350
4B
  3
A4
350
4C
  3
A5
350
4D
  3
A6
350
4E
  3
A7
350
4F
  3
A8
350
50
  3
A9
350
51
  3
B0
350
52
  3
B1
350
53
  3
B2
350
54
  3
B3
350
55
  3
B4
350
56
  3
B5
350
57
  3
B6
350
58
  0
XRECORD
  5
112
102
{ACAD_REACTORS
330
C
102
}
330
C
100
AcDbXrecord
280
     1
  1
DWGPROPS COOKIE
  2

  3

  4

  6

  7

  8
rayen
  9

300
=
301
=
302
=
303
=
304
=
305
=
306
=
307
=
308
=
309
=
 40
0.0
 41
2459927.518808125
 42
2459927.518834433
  1

 90
        0
  0
LAYOUT
  5
1E
102
{ACAD_REACTORS
330
1A
102
}
330
1A
100
AcDbPlotSettings
  1

  2
none_device
  4

  6

 40
0.0
 41
0.0
 42
0.0
 43
0.0
 44
0.0
 45
0.0
 46
0.0
 47
0.0
 48
0.0
 49
0.0
140
0.0
141
0.0
142
1.0
143
1.0
 70
   688
 72
     1
 73
     0
 74
     5
  7

 75
    16
147
1.0
148
0.0
149
0.0
100
AcDbLayout
  1
Layout1
 70
     1
 71
     1
 10
0.0
 20
0.0
 11
420.0
 21
297.0
 12
0.0
 22
0.0
 32
0.0
 14
1.0000000000E+20
 24
1.0000000000E+20
 34
1.0000000000E+20
 15
-1.0000000000E+20
 25
-1.0000000000E+20
 35
-1.0000000000E+20
146
0.0
 13
0.0
 23
0.0
 33
0.0
 16
1.0
 26
0.0
 36
0.0
 17
0.0
 27
1.0
 37
0.0
 76
     0
330
1B
  0
LAYOUT
  5
26
102
{ACAD_REACTORS
330
1A
102
}
330
1A
100
AcDbPlotSettings
  1

  2
none_device
  4

  6

 40
0.0
 41
0.0
 42
0.0
 43
0.0
 44
0.0
 45
0.0
 46
0.0
 47
0.0
 48
0.0
 49
0.0
140
0.0
141
0.0
142
1.0
143
1.0
 70
   688
 72
     1
 73
     0
 74
     5
  7

 75
    16
147
1.0
148
0.0
149
0.0
100
AcDbLayout
  1
Layout2
 70
     1
 71
     2
 10
0.0
 20
0.0
 11
0.0
 21
0.0
 12
0.0
 22
0.0
 32
0.0
 14
0.0
 24
0.0
 34
0.0
 15
0.0
 25
0.0
 35
0.0
146
0.0
 13
0.0
 23
0.0
 33
0.0
 16
1.0
 26
0.0
 36
0.0
 17
0.0
 27
1.0
 37
0.0
 76
     0
330
23
  0
LAYOUT
  5
22
102
{ACAD_REACTORS
330
1A
102
}
330
1A
100
AcDbPlotSettings
  1

  2
none_device
  4
ANSI_A_(11.00_x_8.50_Inches)
  6

 40
6.35
 41
19.05
 42
6.35000508
 43
19.05000254
 44
279.4
 45
215.9
 46
349.0212625615
 47
-6.4169337024
 48
0.0
 49
0.0
140
0.0
141
0.0
142
0.090972973
143
1.0
 70
  1696
 72
     0
 73
     0
 74
     0
  7

 75
     0
147
0.0179189148
148
-1300.4909072572
149
0.0
100
AcDbLayout
  1
Model
 70
     1
 71
     0
 10
0.0
 20
0.0
 11
420.0
 21
297.0
 12
0.0
 22
0.0
 32
0.0
 14
-122.4353545735
 24
-5.0
 34
0.0
 15
-64.2353545735
 25
87.5
 35
0.0
146
0.0
 13
0.0
 23
0.0
 33
0.0
 16
1.0
 26
0.0
 36
0.0
 17
0.0
 27
1.0
 37
0.0
 76
     0
330
1F
331
29
  0
MLINESTYLE
  5
18
102
{ACAD_REACTORS
330
17
102
}
330
17
100
AcDbMlineStyle
  2
Standard
 70
     0
  3

 62
   256
 51
90.0
 52
90.0
 71
     2
 49
0.5
 62
   256
  6
BYLAYER
 49
-0.5
 62
   256
  6
BYLAYER
  0
ACDBPLACEHOLDER
  5
F
102
{ACAD_REACTORS
330
E
102
}
330
E
  0
SCALE
  5
48
102
{ACAD_REACTORS
330
47
102
}
330
47
100
AcDbScale
 70
     0
300
1:1
140
1.0
141
1.0
290
     1
  0
SCALE
  5
49
102
{ACAD_REACTORS
330
47
102
}
330
47
100
AcDbScale
 70
     0
300
1:2
140
1.0
141
2.0
290
     0
  0
SCALE
  5
4A
102
{ACAD_REACTORS
330
47
102
}
330
47
100
AcDbScale
 70
     0
300
1:4
140
1.0
141
4.0
290
     0
  0
SCALE
  5
4B
102
{ACAD_REACTORS
330
47
102
}
330
47
100
AcDbScale
 70
     0
300
1:5
140
1.0
141
5.0
290
     0
  0
SCALE
  5
4C
102
{ACAD_REACTORS
330
47
102
}
330
47
100
AcDbScale
 70
     0
300
1:8
140
1.0
141
8.0
290
     0
  0
SCALE
  5
4D
102
{ACAD_REACTORS
330
47
102
}
330
47
100
AcDbScale
 70
     0
300
1:10
140
1.0
141
10.0
290
     0
  0
SCALE
  5
4E
102
{ACAD_REACTORS
330
47
102
}
330
47
100
AcDbScale
 70
     0
300
1:16
140
1.0
141
16.0
290
     0
  0
SCALE
  5
4F
102
{ACAD_REACTORS
330
47
102
}
330
47
100
AcDbScale
 70
     0
300
1:20
140
1.0
141
20.0
290
     0
  0
SCALE
  5
50
102
{ACAD_REACTORS
330
47
102
}
330
47
100
AcDbScale
 70
     0
300
1:30
140
1.0
141
30.0
290
     0
  0
SCALE
  5
51
102
{ACAD_REACTORS
330
47
102
}
330
47
100
AcDbScale
 70
     0
300
1:40
140
1.0
141
40.0
290
     0
  0
SCALE
  5
52
102
{ACAD_REACTORS
330
47
102
}
330
47
100
AcDbScale
 70
     0
300
1:50
140
1.0
141
50.0
290
     0
  0
SCALE
  5
53
102
{ACAD_REACTORS
330
47
102
}
330
47
100
AcDbScale
 70
     0
300
1:100
140
1.0
141
100.0
290
     0
  0
SCALE
  5
54
102
{ACAD_REACTORS
330
47
102
}
330
47
100
AcDbScale
 70
     0
300
2:1
140
2.0
141
1.0
290
     0
  0
SCALE
  5
55
102
{ACAD_REACTORS
330
47
102
}
330
47
100
AcDbScale
 70
     0
300
4:1
140
4.0
141
1.0
290
     0
  0
SCALE
  5
56
102
{ACAD_REACTORS
330
47
102
}
330
47
100
AcDbScale
 70
     0
300
8:1
140
8.0
141
1.0
290
     0
  0
SCALE
  5
57
102
{ACAD_REACTORS
330
47
102
}
330
47
100
AcDbScale
 70
     0
300
10:1
140
10.0
141
1.0
290
     0
  0
SCALE
  5
58
102
{ACAD_REACTORS
330
47
102
}
330
47
100
AcDbScale
 70
     0
300
100:1
140
100.0
141
1.0
290
     0
  0
ENDSEC
  0
EOF
